<svg xml:space="preserve" style="enable-background:new 0 0 300 100;" viewBox="0 0 300 100" y="0px" x="0px" xmlns:xlink="http://www.w3.org/1999/xlink" xmlns="http://www.w3.org/2000/svg" id="Layer_1" version="1.1">
<style type="text/css">
	.st0{fill-rule:evenodd;clip-rule:evenodd;fill:#8B0051;}
	.st1{fill:#8B0051;}
</style>
<g>
	<path d="M232.87,17.84c3.22-1.04,6.68,0.8,7.58,4.1c0.84,3.09-1,6.38-4.08,7.28c-3.09,0.91-6.35-0.81-7.35-3.88
		C228.02,22.22,229.74,18.86,232.87,17.84" class="st0"></path>
	<path d="M140.58,15.94c3.69-0.47,6.79,2.63,6.32,6.31c-0.32,2.51-2.34,4.53-4.85,4.85c-3.69,0.47-6.79-2.63-6.32-6.31
		C136.05,18.28,138.08,16.26,140.58,15.94z" class="st0"></path>
	<path d="M130.39,33.55c3.13,0.67,4.9,4.01,1.7,9.06c-4.33,5.41-6.35,12.62-6.29,21.46c0,0.09,0.01,0.18,0.01,0.26
		c0.21,2.55-1.05,4.01-2.7,4.35c-2.02,0.42-3.94-1.12-4.14-3.18c-1.06-10.9-0.52-21.31,6.07-29.87
		C126.3,34,128.37,33.12,130.39,33.55z" class="st0"></path>
	<path d="M142.86,34.76c3.43-0.68,5.03,0.02,3.23,2.77l-1.43,20.25c4.74-1.11,11.42-6.98,20.22-17.95
		c0.14-0.18,0.29-0.35,0.46-0.5c1.89-1.83,3.88-3.4,5.98-4.67c1.11-0.67,2.44-0.94,3.71-0.68c2.67,0.53,2.9,2.78,0.87,6.62
		c-0.14,0.27-0.31,0.52-0.49,0.76c-8.1,10.5-18.17,19.32-30.93,25.86c-4.26,1.42-7.48,1.42-8.3-1.83
		c-2.86-7.62-1.6-14.28,0.54-24.52C137.34,37.78,139.77,35.38,142.86,34.76z" class="st0"></path>
	<path d="M207.22,43.8c-0.26,0.94-0.68,1.75-1.26,2.42c-1.44,1.65-4.33,2.12-6.3,1.17c-4.24-2.05-8.72-1.54-15.12,3.34
		c-0.04,0.03-0.08,0.06-0.12,0.08c-0.12,0.08-0.24,0.16-0.36,0.24c-2.64,1.83-0.11,5.92,2.66,4.29c1.37-0.8,2.77-1.9,4.2-3.31
		c2.17-2.18,5.37-2.49,9.96-0.26c0.11,0.05,0.22,0.12,0.32,0.19c6.73,4.57,12.61,8.18,15.45,8.35c0.51,0.03,1.01,0.23,1.41,0.56
		c2.09,1.72,2,4.6-0.07,6.47c-0.31,0.28-0.68,0.47-1.09,0.56c-3.78,0.85-9.15-1.12-16.27-6.17c-0.09-0.07-0.19-0.14-0.27-0.22
		c-3.29-3.04-7.41-3.78-13.08-0.24c-5.56,3.36-8.87,7.22-15.98,7.08c-0.25-0.01-0.51,0.01-0.76,0.02c-2.39,0.16-3.98-1.13-3.67-5.81
		c0.13-2.02,0.7-4.01,1.67-5.79c5.31-9.7,21.66-24.3,32.31-22.83C205.6,34.61,208.5,39.18,207.22,43.8z" class="st0"></path>
	<path d="M225.72,41.76c0.53-6.96,6.76-11.31,10.38-5.37c1.15,1.88,1.51,4.14,1.15,6.31
		c-4.46,27.18-11.86,51.02-18.7,52.88c-3.96,2.73-12.18,0.78-11.55-5.09c0.04-0.4,0.24-1.01,0.46-1.34
		c0.57-0.86,1.41-1.18,2.42-1.16c2.58,0.05,5.09-1.01,6.79-2.95C223.47,77.25,225,60.22,225.72,41.76z" class="st0"></path>
	<path d="M51.19,74.65c0.13-3.56,0.74-6.74,1.6-9.88c1.46-5.32,3.57-10.4,5.84-15.41c2.68-5.92,5.46-11.8,8.06-17.76
		c1.49-3.41,2.71-6.93,4.04-10.4c0.07-0.19,0.13-0.4,0.17-0.6c0.26-1.36-0.4-2.27-1.77-2.39c-2.25-0.2-4.41-0.81-6.52-1.56
		c-0.92-0.33-1.79-0.81-2.66-1.28c-0.35-0.19-0.64-0.49-0.91-0.79c-0.45-0.49-0.54-1.08-0.24-1.67c0.55-1.09,1.28-2.01,2.46-2.5
		c4.34-1.8,8.85-3.02,13.45-3.94c5.35-1.07,10.76-1.69,16.2-1.95c4.71-0.22,9.43-0.17,14.13,0.23c5.02,0.42,9.97,1.2,14.82,2.62
		c2.41,0.71,4.81,1.48,6.93,2.88c0.83,0.55,1.66,1.14,2.4,1.8c2.58,2.33,3.24,5.12,2.02,8.38c-0.62,1.65-1.49,3.15-2.71,4.45
		c-3.5,3.71-7.57,6.7-11.96,9.25c-6.77,3.94-14,6.79-21.51,8.96c-2.07,0.6-4.16,1.09-6.25,1.63c-0.77,0.2-1.11,0.62-1.09,1.41
		c0.04,1.54,0.04,1.54,1.28,2.41c6.29,4.38,12.49,8.88,18.38,13.79c3.54,2.95,6.98,6.03,10.02,9.52c1.41,1.62,2.72,3.31,3.67,5.24
		c0.32,0.65,0.56,1.35,0.79,2.04c0.18,0.53,0.02,0.97-0.33,1.2c-0.4,0.26-0.96,0.23-1.37-0.09c-6.57-5.06-13.21-10.02-20.04-14.72
		c-7.6-5.23-15.38-10.14-23.61-14.33c-1.46-0.74-3.03-0.93-4.61-0.37c-0.98,0.35-1.7,0.99-2.15,1.97
		c-4.23,9.18-8.48,18.34-12.72,27.52c-0.17,0.36-0.33,0.56-0.76,0.46c-0.45-0.11-0.92-0.13-1.37-0.23
		c-2.04-0.49-3.09-1.87-3.44-3.86C51.27,75.91,51.24,75.13,51.19,74.65z M98.78,14.56c0,0.06,0,0.12,0,0.18c-3.07,0-6.14,0-9.2,0
		c-1.41,0-2.48,0.83-2.74,2.23c-0.28,1.47-0.77,2.87-1.49,4.16c-1.19,2.13-2.43,4.23-3.67,6.32c-1.6,2.69-3.19,5.38-4.36,8.29
		c-0.12,0.31-0.23,0.67-0.19,0.99c0.12,1.13,1.2,1.75,2.29,1.33c2.05-0.79,4.09-1.62,6.14-2.39c5.49-2.08,11.01-4.09,16.49-6.22
		c3.47-1.35,6.85-2.92,9.97-4.99c1.74-1.16,3.35-2.47,4.59-4.18c1.11-1.54,0.58-3.41-1.17-4.14c-2.48-1.04-5.08-1.62-7.76-1.66
		C104.71,14.43,101.75,14.52,98.78,14.56z" class="st1"></path>
</g>
<g>
	<g>
		<path d="M244.18,34.8c0.26-0.05,0.65-0.08,1.02-0.08c0.55,0,0.91,0.1,1.15,0.32c0.18,0.15,0.3,0.41,0.3,0.7
			c0,0.49-0.34,0.82-0.73,0.94v0.01c0.28,0.1,0.46,0.37,0.56,0.72c0.13,0.52,0.23,0.89,0.31,1.04h-0.52
			c-0.06-0.11-0.15-0.41-0.26-0.87c-0.12-0.5-0.33-0.7-0.79-0.72h-0.55v1.6h-0.5V34.8z M244.68,36.47h0.59
			c0.55,0,0.89-0.27,0.89-0.69c0-0.5-0.4-0.69-0.92-0.69c-0.28,0-0.47,0.03-0.55,0.05V36.47z" class="st1"></path>
	</g>
	<path d="M245.36,33.28c-1.82,0-3.29,1.48-3.29,3.29c0,1.82,1.48,3.29,3.29,3.29s3.29-1.48,3.29-3.29
		C248.66,34.76,247.18,33.28,245.36,33.28z M245.36,39.37c-1.54,0-2.79-1.25-2.79-2.79c0-1.54,1.25-2.79,2.79-2.79
		c1.54,0,2.79,1.25,2.79,2.79C248.15,38.12,246.9,39.37,245.36,39.37z" class="st1"></path>
</g>
</svg>
